<svg width="14" height="17" viewBox="0 0 14 17" fill="none" xmlns="http://www.w3.org/2000/svg">
<path d="M6.89543 0.0748956C6.82109 0.415362 6.78305 0.518983 6.66894 0.685104C6.4632 0.984452 6.42516 1.00748 6.26438 0.930175C5.82696 0.718 4.88816 0.532141 4.73256 0.625893C4.66341 0.667012 4.67032 0.670301 5.00054 0.75254C5.53823 0.88741 5.90649 1.11603 5.90649 1.31834C5.90649 1.49926 5.78374 1.65223 5.71804 1.5519C5.65061 1.44663 4.63056 1.33479 3.74535 1.33479C2.87744 1.33643 2.74605 1.3792 3.36845 1.45979C3.86465 1.52394 4.1724 1.62427 4.23464 1.74269C4.32281 1.91046 4.24674 1.94171 3.74017 1.94006C3.22841 1.94006 2.68899 2.03875 2.93623 2.08809C2.98118 2.09631 3.12122 2.11276 3.24397 2.12263C3.5863 2.15059 4.00296 2.25586 4.08422 2.33316C4.19833 2.44172 4.13436 2.44994 3.79722 2.36935C3.29238 2.24928 2.90856 2.31507 2.50918 2.59139C2.2049 2.80192 2.28443 2.83481 2.81174 2.72133C3.10566 2.65718 3.26645 2.69008 3.30103 2.82001C3.37018 3.08482 2.82039 3.16377 1.93 3.01574C0.942793 2.85291 0.70939 2.871 0.444867 3.13087C0.20282 3.36772 0.21838 3.60786 0.463885 3.42035C0.847703 3.12429 1.09321 3.09798 1.63609 3.29206C2.96216 3.76411 3.98394 3.55522 3.76437 2.85784C3.70905 2.68021 3.71942 2.67856 3.97357 2.82166C4.65303 3.20818 5.42067 2.66211 5.02648 2.07329C4.87088 1.84302 4.8726 1.83644 5.06797 1.86276C5.58146 1.93184 5.98083 2.04697 6.50297 2.28053C6.84529 2.43349 6.84702 2.43349 6.8038 2.25421C6.70698 1.85618 6.81071 1.42032 7.00262 1.41703C7.13229 1.41538 7.23084 1.96144 7.15822 2.26408C7.11673 2.43514 7.12364 2.43514 7.43139 2.28711C8.12987 1.95322 9.33492 1.71308 9.0047 1.9746C8.74882 2.17526 8.76438 2.58317 9.03409 2.77889C9.38333 3.03219 9.69972 3.01738 10.1579 2.72791C10.2685 2.65718 10.2754 2.65718 10.2478 2.71804C10.0386 3.18844 10.3048 3.51246 10.9307 3.54864C11.3647 3.57332 11.6759 3.51081 12.4642 3.24601L12.8152 3.12758L13.0382 3.19337C13.161 3.22956 13.3322 3.31015 13.4203 3.3743C13.6918 3.57167 13.7886 3.4697 13.5863 3.20324C13.3512 2.89567 12.9985 2.85126 12.0441 3.01245C11.1088 3.17035 10.4967 3.06673 10.6921 2.78218C10.7613 2.6835 10.9514 2.67198 11.2834 2.74929C11.6655 2.83646 11.7243 2.77889 11.4476 2.58481C11.0742 2.32494 10.6558 2.25421 10.1613 2.37099C9.83112 2.44829 9.79827 2.44665 9.83457 2.35948C9.86224 2.2904 10.1942 2.19336 10.5745 2.14401C11.0794 2.07658 11.1036 2.07164 11.0707 2.04039C11.0379 2.00914 10.6195 1.9598 10.0559 1.91868C9.24502 1.85947 10.049 1.41703 10.9687 1.41703C10.9895 1.41703 10.986 1.40058 10.9636 1.3792C10.8149 1.23775 8.64163 1.36604 8.28547 1.53709C8.16272 1.59631 8.16445 1.59631 8.10394 1.48446C7.93623 1.17853 8.25954 0.915371 9.00988 0.742671C9.27441 0.681815 9.31936 0.64234 9.17067 0.6078C8.9632 0.558457 8.34944 0.68017 7.84633 0.872608C7.46078 1.02064 7.36742 0.946622 7.13402 0.315031C7.02164 0.0107494 6.92828 -0.0813573 6.89543 0.0748956Z"/>
<path d="M1.24881 3.37759C1.02232 3.48614 0.954895 3.77069 1.09148 4.03056C1.13643 4.1128 1.13643 4.13089 1.09667 4.14241C0.847703 4.21313 0.398186 4.88584 0.187259 5.50263C-0.0634325 6.23619 -0.00119182 6.64739 0.361879 6.64739C0.444867 6.64739 0.446596 6.65232 0.422391 6.80364C0.37571 7.08983 0.37571 7.08983 0.538228 7.10134C0.700745 7.11286 0.704203 7.11779 0.650607 7.36122C0.539957 7.87109 0.548601 8.90236 0.667896 9.57507C0.77336 10.1688 0.77336 10.1343 0.686914 10.1343C0.220109 10.1343 0.0696935 10.7461 0.491547 10.9369C0.999847 11.1656 1.52889 10.7067 1.80725 9.79383C2.00953 9.1277 2.35185 8.95006 2.96389 9.19513C3.20248 9.29053 3.22841 9.28724 3.19729 9.1721C3.14369 8.9698 2.77371 8.7346 2.4504 8.69677C2.11845 8.66058 1.44936 8.8596 1.28685 9.04546C0.986015 9.38592 1.20732 7.07338 1.52025 6.60791C1.70524 6.33159 2.05794 6.04869 2.46077 5.85461C2.66306 5.75757 2.82385 5.66217 2.81866 5.64408C2.76506 5.47796 2.21527 5.45822 1.75884 5.60789C1.61707 5.65395 1.4995 5.68849 1.49604 5.68355C1.49431 5.68026 1.47184 5.62763 1.44763 5.56842C1.34217 5.31677 1.20213 5.24111 1.03788 5.34967C0.965268 5.39901 0.961811 5.39736 0.961811 5.31677C0.961811 5.07499 1.38194 4.5207 1.7208 4.31346C1.81416 4.2559 1.91271 4.16543 1.93692 4.1128C1.97668 4.02563 1.99743 4.01576 2.14438 4.01576C2.65268 4.01576 2.58526 3.80687 2.04238 3.70325C1.98014 3.69174 1.93 3.66213 1.93 3.63911C1.93 3.58483 1.66893 3.35785 1.60496 3.35785C1.57903 3.35785 1.51333 3.34963 1.45974 3.3414C1.40095 3.33154 1.31278 3.34634 1.24881 3.37759Z"/>
<path d="M12.3069 3.37923C12.2429 3.41048 12.1496 3.49108 12.0994 3.55851C12.0234 3.66049 11.9732 3.69009 11.7848 3.73779C11.3802 3.83977 11.3785 3.98122 11.7796 4.00918C11.9542 4.02069 11.9905 4.03549 12.0216 4.10128C12.0424 4.14405 12.1254 4.223 12.2066 4.27892C12.5956 4.54373 12.8947 4.9138 12.9881 5.23946C13.0313 5.38914 13.0158 5.40558 12.893 5.33815C12.7478 5.2592 12.6302 5.3217 12.5351 5.52894C12.4798 5.64572 12.4452 5.68684 12.4072 5.67204C11.9317 5.49276 11.4822 5.44506 11.2696 5.55197C11.1001 5.6375 11.1157 5.65888 11.484 5.84474C12.338 6.27567 12.5144 6.51416 12.708 7.48622C12.7979 7.94346 12.8481 9.03559 12.7806 9.09973C12.7668 9.11289 12.7115 9.07999 12.6562 9.02736C12.1582 8.55367 11.0915 8.61124 10.7993 9.12605C10.7094 9.28724 10.744 9.30039 10.9964 9.205C11.6499 8.95828 11.9715 9.13427 12.1824 9.85468C12.3813 10.5323 12.7927 10.9863 13.2129 10.9896C13.8249 10.9929 13.9355 10.2461 13.3356 10.1507C13.1956 10.1277 13.1938 10.1277 13.218 10.0076C13.2319 9.94185 13.2561 9.82014 13.2734 9.73955C13.4272 8.96322 13.4324 7.74444 13.2837 7.18193C13.2647 7.11121 13.2716 7.10298 13.3322 7.12108C13.4895 7.16878 13.595 7.08654 13.569 6.93357C13.5258 6.65396 13.5189 6.67041 13.6745 6.63916C13.8906 6.59804 13.9113 6.55528 13.9079 6.17369C13.8992 5.48947 13.3944 4.44504 12.9449 4.18023C12.8239 4.11115 12.8221 4.10457 12.8723 4.03056C13.1351 3.64733 12.727 3.17693 12.3069 3.37923Z"/>
<path d="M6.49951 3.45325C6.46666 3.47298 6.44591 3.57989 6.43381 3.7822C6.41998 4.00589 6.40442 4.08155 6.36811 4.08155C6.27821 4.08155 6.18312 4.28385 6.18312 4.47794C6.18312 4.70162 6.28339 4.81018 6.63263 4.96808C7.29653 5.26413 8.12295 4.60458 7.65096 4.15556C7.5334 4.04372 7.52821 4.03056 7.51956 3.76246C7.50919 3.47134 7.48499 3.42528 7.33976 3.42364C7.20663 3.42364 7.18588 3.4845 7.18416 3.89898C7.18416 4.29043 7.18243 4.29701 7.08215 4.40063L6.98187 4.50754L6.77095 4.30688V3.90391C6.77095 3.44009 6.70525 3.32989 6.49951 3.45325Z"/>
<path d="M4.67378 4.17694C4.33318 4.37596 3.94072 5.20163 3.96493 5.66875C3.97703 5.89737 4.67378 6.39902 5.0939 6.48126C5.33249 6.52896 5.37053 7.31023 5.13886 7.42371C4.9504 7.51747 4.4836 7.96978 4.39715 8.14412C4.09114 8.76584 4.73948 10.0126 5.56935 10.3975C6.14335 10.6623 6.71562 10.284 6.83492 9.55862C6.88333 9.26092 6.82973 9.16223 6.00331 8.03557L5.89958 7.89247L5.95317 7.54214C5.99294 7.29213 6.0742 7.01088 6.23498 6.57501C6.5289 5.77237 6.53063 5.65723 6.24882 5.79375C6.08284 5.87434 5.38263 6.08816 5.28236 6.08816C5.06624 6.08816 4.64957 5.14571 4.75158 4.89077C4.80691 4.75261 5.23222 4.92367 5.88056 5.34308C6.30068 5.61447 6.36119 5.61776 6.4096 5.37762C6.43554 5.24769 6.34736 5.14078 5.92205 4.78057C5.22357 4.19175 4.91064 4.04043 4.67378 4.17694Z"/>
<path d="M8.95802 4.14898C8.58111 4.29208 7.56624 5.15558 7.56624 5.33157C7.56624 5.62269 7.66825 5.61612 8.18519 5.29045C8.93554 4.8184 9.226 4.73452 9.226 4.98946C9.226 5.4171 8.90096 6.08816 8.69349 6.08816C8.60186 6.08816 7.96044 5.89244 7.74086 5.79704C7.44349 5.66875 7.44176 5.77566 7.73395 6.57337C7.87572 6.95989 7.99674 7.35628 8.03305 7.55365L8.09356 7.88425L7.93277 8.09643C7.6233 8.50433 7.36915 8.86947 7.23948 9.09315L7.10635 9.31849L7.14266 9.55369C7.30518 10.654 8.31313 10.7955 9.11535 9.82837C9.902 8.88098 9.8363 8.0586 8.93035 7.48622C8.61569 7.28884 8.5742 6.48291 8.87849 6.48291C9.1067 6.48291 9.86224 6.00757 9.97807 5.79046C10.1423 5.48124 9.79654 4.60458 9.36258 4.23122C9.22254 4.11115 9.11362 4.08813 8.95802 4.14898Z"/>
<path d="M6.6603 6.04211C5.98602 7.30529 6.03097 7.45661 7.07523 7.43194C7.74259 7.41549 7.87053 7.26582 7.66825 6.73127C7.5455 6.40725 6.93173 5.32828 7.03028 5.61118C7.04238 5.64737 7.12537 5.94836 7.21528 6.2806C7.40373 6.98785 7.40718 6.97634 7.01472 6.97634C6.56175 6.97469 6.57212 7.01088 6.78824 6.20001C6.87468 5.87763 6.94038 5.59967 6.93346 5.58322C6.92828 5.56513 6.80552 5.77237 6.6603 6.04211Z"/>
<path d="M0.0973562 7.56187C-0.0599746 7.68359 -0.0150229 8.45663 0.149223 8.45663C0.156139 8.45663 0.185531 8.46485 0.213193 8.47637C0.259874 8.49281 0.261603 8.47801 0.23394 8.3859C0.164784 8.15399 0.190717 7.96978 0.301367 7.9155C0.406831 7.86287 0.443138 7.8053 0.443138 7.68359C0.443138 7.51747 0.246042 7.44839 0.0973562 7.56187Z"/>
<path d="M13.5898 7.54214C13.4895 7.63754 13.5621 7.87932 13.7056 7.9303C13.8007 7.96484 13.8214 8.14083 13.7557 8.3563C13.6918 8.56683 13.8906 8.45498 13.9649 8.23623C14.0998 7.84642 13.818 7.32503 13.5898 7.54214Z"/>
<path d="M6.17447 7.57174C5.98775 7.67372 6.21942 8.17866 6.79515 8.92539C6.95594 9.13427 7.00608 9.12605 7.21355 8.8596C7.78927 8.1211 7.98118 7.70661 7.80138 7.58655C7.70802 7.52569 6.28166 7.51253 6.17447 7.57174Z"/>
<path d="M11.1399 9.4731C10.8235 9.6606 11.005 9.95337 11.4373 9.95337H11.6638L11.6534 10.2001C11.6223 10.8629 11.133 12.1738 10.6247 12.9518L10.4708 13.187L10.1769 12.9139C9.57697 12.3531 8.98914 12.131 8.73844 12.3679C8.62607 12.4764 8.61569 12.5505 8.68658 12.7149C8.78167 12.9288 9.04273 12.9666 9.22081 12.7939C9.34702 12.6705 9.4836 12.6886 9.73603 12.8613C10.0248 13.062 10.0887 13.307 10.0472 14.0653C10.023 14.5143 10.0974 14.7725 10.2374 14.7215C10.2875 14.7035 10.2979 14.6574 10.2979 14.4469C10.2979 13.886 10.5936 13.2824 11.1053 12.8037C11.3301 12.5932 11.3456 12.5949 11.5047 12.863C11.643 13.0949 11.7035 13.1113 11.688 12.9139C11.6828 12.8416 11.6741 12.6113 11.6707 12.4041C11.6638 12.006 11.6759 11.955 11.8609 11.5241L11.9646 11.284L12.0977 11.4254C12.2948 11.6327 12.262 11.8448 12.0268 11.8777C11.8038 11.909 11.911 12.1409 12.1479 12.1409C12.2844 12.1409 12.338 12.0883 12.338 11.955C12.338 11.7791 12.5645 11.6919 12.7391 11.8004C13.0175 11.9748 12.9501 12.3268 12.5974 12.5439C12.3519 12.6952 12.4694 12.6952 12.8273 12.5455C13.4618 12.2791 13.3875 11.886 12.6095 11.3991C12.2222 11.1573 12.1997 11.1031 12.4884 11.108C12.7028 11.1129 12.7219 11.0932 12.606 10.9896C12.5057 10.8991 12.3864 10.8744 12.2827 10.9188C12.2343 10.9402 12.1911 10.9567 12.1859 10.9567C12.179 10.9567 12.1824 10.8185 12.1911 10.6475C12.217 10.1919 12.1185 9.85962 11.9006 9.67047C11.6309 9.43691 11.3301 9.35796 11.1399 9.4731Z"/>
<path d="M2.35358 9.52573C1.89715 9.72639 1.73463 10.0438 1.76402 10.6721L1.77958 11.0126L1.68795 10.9633C1.58076 10.904 1.45974 10.9254 1.35082 11.0225C1.22979 11.1294 1.25227 11.1639 1.42343 11.1409C1.7744 11.0899 1.76402 11.1705 1.38539 11.4073C0.526125 11.9468 0.475987 12.3514 1.23152 12.6327C1.50123 12.733 1.51679 12.7166 1.31451 12.5488C1.00503 12.2906 0.94625 12.0784 1.13643 11.909C1.33871 11.7297 1.6188 11.7774 1.6188 11.9929C1.62052 12.1722 1.72772 12.233 1.91098 12.1606C2.12191 12.0768 2.11326 11.9238 1.89715 11.9041C1.71043 11.8876 1.66548 11.6508 1.82281 11.5143C1.88159 11.4633 1.93 11.4057 1.93 11.386C1.93 11.2462 2.08214 11.4879 2.21008 11.8333C2.3069 12.0916 2.33456 12.5817 2.26714 12.8547C2.18069 13.2034 2.29999 13.2182 2.4625 12.8778C2.59044 12.6146 2.63021 12.6162 2.89127 12.8827C3.38574 13.3893 3.61742 13.8613 3.65545 14.4436C3.6762 14.766 3.70732 14.8169 3.8318 14.7413C3.87502 14.715 3.88367 14.5982 3.88712 14.0571C3.89231 13.182 4.00815 12.9238 4.45766 12.7807L4.62883 12.7281L4.72737 12.8284C4.97634 13.0817 5.39819 12.8498 5.28408 12.5208C5.14231 12.1113 4.4836 12.3021 3.77302 12.9584C3.57592 13.1409 3.48083 13.2084 3.45836 13.182C3.2993 12.9847 2.79791 12.0126 2.60255 11.5258C2.42793 11.0932 2.23256 10.0965 2.30172 9.9912C2.31209 9.97475 2.40372 9.97146 2.50573 9.98297C2.72184 10.006 2.87744 9.94843 2.93795 9.82343C3.06244 9.56191 2.69418 9.37441 2.35358 9.52573Z"/>
<path d="M6.82109 10.4007C6.60324 10.8284 6.6067 10.8251 6.11915 10.8251C5.64888 10.8251 5.61085 10.8432 5.61604 11.0685C5.62122 11.3416 5.69556 11.5323 5.87537 11.7346C6.12261 12.011 6.23153 12.2412 6.23326 12.4945C6.23498 12.608 6.24363 12.7001 6.25573 12.7001C6.30414 12.7001 6.39923 12.5636 6.47185 12.3843C6.61362 12.0324 6.74328 12.136 6.87641 12.71C6.93692 12.9715 6.96286 12.9699 7.04757 12.6935C7.23429 12.0768 7.35186 11.9863 7.45732 12.3843C7.49363 12.5159 7.61293 12.7001 7.66306 12.7001C7.6769 12.7001 7.689 12.5998 7.69073 12.4781C7.69246 12.2166 7.77717 12.0389 8.04515 11.7248C8.23706 11.4994 8.29239 11.358 8.29239 11.0833C8.29239 10.8251 8.26818 10.8103 7.79619 10.8202C7.33457 10.83 7.30518 10.8119 7.09944 10.3892C6.95075 10.0817 6.98533 10.08 6.82109 10.4007Z"/>
<path d="M4.50435 13.1294C4.44902 13.187 4.44556 13.2117 4.48187 13.3005C4.50435 13.3564 4.51818 13.4057 4.51472 13.409C4.50953 13.4123 4.44038 13.4469 4.35912 13.4863C4.00642 13.6557 4.00988 14.1179 4.36603 14.4551C4.61327 14.6903 4.78616 14.6508 4.6392 14.3926C4.58906 14.3021 4.52682 14.1919 4.50089 14.1475C4.40061 13.9682 4.47495 13.8383 4.63747 13.909C4.68934 13.9304 4.75504 14.0406 4.84494 14.2495C5.0161 14.6492 5.17516 14.9189 5.39128 15.1739C5.51576 15.3219 5.55898 15.3992 5.54515 15.4469C5.46389 15.7166 5.48464 16.039 5.5901 16.1772C5.8114 16.4634 5.91341 16.4305 5.80621 16.1048C5.73014 15.8745 5.73879 15.8416 5.88056 15.7939C6.04135 15.7413 6.06728 15.7479 6.34218 15.9107C6.63955 16.0867 6.63436 16.0752 6.47357 16.2216C6.25573 16.4206 6.08976 16.7907 6.15545 16.9288C6.20732 17.0357 6.21078 17.0341 6.4096 16.8417C6.50296 16.7495 6.67067 16.6015 6.77959 16.5094L6.98014 16.3449L7.17724 16.5028C7.28616 16.5916 7.46424 16.7413 7.57143 16.8384C7.78236 17.0275 7.81693 17.0242 7.81693 16.812C7.81693 16.6624 7.68381 16.4206 7.49363 16.2249C7.41583 16.1443 7.36569 16.0703 7.38125 16.0571C7.46597 15.988 7.88263 15.7594 7.92413 15.7594C8.17482 15.7594 8.24052 15.8647 8.15407 16.1295C8.11604 16.243 8.08492 16.3384 8.08492 16.3433C8.08319 16.3877 8.23014 16.3318 8.2993 16.2611C8.46873 16.0883 8.5085 15.868 8.43416 15.5077C8.40822 15.3778 8.41514 15.363 8.59149 15.1459C8.78512 14.9107 9.02199 14.4995 9.15684 14.164C9.24501 13.9452 9.3038 13.8844 9.42309 13.8844C9.54412 13.8844 9.52683 14.0505 9.3816 14.2972C9.19833 14.6097 9.21735 14.664 9.4715 14.5406C9.96251 14.3021 9.9919 13.5801 9.51472 13.4436C9.4473 13.4238 9.44384 13.4107 9.47669 13.3087C9.52337 13.1672 9.44211 13.062 9.28824 13.062C9.1724 13.062 9.1482 13.1047 9.07039 13.4403C8.90442 14.1475 8.21286 14.9814 7.32247 15.5456L6.98014 15.7627L6.7623 15.6229C5.66099 14.9173 5.02993 14.1557 4.87087 13.3367C4.81728 13.057 4.65822 12.9682 4.50435 13.1294Z"/>
</svg>
