<svg width="13" height="10" viewBox="0 0 13 10" fill="none" xmlns="http://www.w3.org/2000/svg">
<path d="M11.8011 3.11626L11.801 3.11626L11.8034 3.11824C11.8484 3.15531 11.8821 3.20422 11.9008 3.25944C11.9194 3.31466 11.9222 3.374 11.9089 3.43074L10.6141 8.92994L10.614 8.92993L10.6128 8.93572C10.604 8.97512 10.5871 9.01226 10.5633 9.04482C10.5394 9.07738 10.5091 9.10464 10.4742 9.12489L10.4733 9.12537C10.3967 9.17002 10.3056 9.18272 10.2197 9.16079C7.78254 8.48771 5.20845 8.48806 2.77144 9.16183L2.77143 9.16179L2.76558 9.16349C2.74143 9.17048 2.71643 9.17409 2.69128 9.17422C2.63331 9.17401 2.57647 9.15819 2.52673 9.1284L2.52431 9.12698C2.48849 9.10581 2.45734 9.07758 2.43274 9.04401C2.40815 9.01045 2.39063 8.97224 2.38124 8.9317L2.38092 8.93036L1.09108 3.43075L1.09078 3.42948C1.07732 3.37275 1.08 3.31339 1.09851 3.25811C1.11702 3.20282 1.15062 3.15382 1.19553 3.11663C1.24043 3.07945 1.29485 3.05557 1.35261 3.04769C1.41038 3.03981 1.4692 3.04825 1.52242 3.07206L1.5234 3.07249L4.09293 4.21507L4.51125 4.40108L4.73332 4.00074L6.2248 1.31203C6.25248 1.26397 6.29227 1.22398 6.34023 1.19607L6.09239 0.770307L6.34023 1.19607C6.38874 1.16783 6.44386 1.15295 6.49999 1.15295C6.55612 1.15295 6.61125 1.16783 6.65976 1.19607C6.70772 1.22398 6.74751 1.26397 6.77519 1.31204L8.26666 4.00074L8.48874 4.40108L8.90705 4.21507L11.4766 3.0725L11.4782 3.07179C11.5307 3.04819 11.5889 3.03985 11.646 3.04771C11.7031 3.05557 11.7568 3.07932 11.8011 3.11626Z" stroke-linecap="round"/>
</svg>
