<svg width="15" height="19" viewBox="0 0 15 19" fill="none" xmlns="http://www.w3.org/2000/svg">
<path d="M6.80256 1.25177C6.37904 1.56941 5.74931 2.04867 5.39823 2.31616L4.76851 2.80656L4.25024 2.53907C3.60938 2.20471 3.39204 2.19913 3.29173 2.51121C3.25829 2.62266 3.19142 3.00161 3.14127 3.35827C3.09668 3.71492 3.01866 4.08272 2.96851 4.17746C2.91835 4.2722 2.71216 4.52855 2.51154 4.75146C2.16046 5.13598 1.17408 6.40656 1.11835 6.54588C1.10721 6.58489 1.28554 6.75207 1.53074 6.92483C1.77037 7.09201 2.08244 7.35393 2.22733 7.49882C2.68987 7.98365 2.95736 8.70254 2.85148 9.19851L2.80133 9.44372H2.4391C1.95427 9.43814 1.52517 9.2431 0.772844 8.67468C0.455197 8.43505 0.187705 8.25115 0.176559 8.26229C0.126404 8.31245 1.93755 11.1211 2.2552 11.4833C2.32764 11.5669 2.35551 11.5614 2.61743 11.3886C2.96294 11.1546 3.43662 11.0097 3.74312 11.0431C4.00504 11.0765 4.50659 11.3775 4.80195 11.6784C5.036 11.9236 5.4038 12.6592 5.53755 13.1496C5.5877 13.3502 5.63229 13.7013 5.63786 13.9298C5.64343 14.4759 5.47625 14.8493 5.14746 15.0109C4.93569 15.1112 4.9134 15.1168 4.67377 15.0276C4.53445 14.9775 4.40628 14.9496 4.39514 14.9663C4.35613 15.0053 4.69049 15.6573 5.58771 17.3013C5.97223 18.0035 6.2843 18.5998 6.2843 18.622C6.2843 18.6499 6.30659 18.6666 6.32888 18.6666C6.41805 18.6666 6.57966 17.2289 6.60752 16.2425C6.64096 14.7824 6.4682 13.5118 6.06696 12.2635C5.94993 11.8957 5.79947 11.6059 5.47068 11.11C4.93569 10.2963 4.56789 9.59975 4.32826 8.94217C4.15551 8.47963 4.14436 8.39047 4.13879 7.74403C4.13879 7.20347 4.16108 6.97499 4.24467 6.74093C4.60133 5.68768 5.37594 4.90749 6.5908 4.38365C7.24839 4.09944 7.53817 4.07158 8.09544 4.23876C8.65272 4.40037 9.21 4.76817 9.68925 5.27529C10.1518 5.77127 10.2967 6.06105 10.3691 6.67406C10.475 7.57127 10.4416 8.08954 10.2465 8.88644C10.0013 9.86724 9.82857 10.2518 9.11526 11.4388C8.3295 12.7372 7.98956 13.4338 8.03414 13.6289C8.10102 13.8796 8.23476 14.9942 8.31835 15.9583C8.41309 17.0171 8.45767 17.3292 8.50783 17.3292C8.55241 17.3292 9.55551 15.7911 9.85086 15.2784C10.0236 14.9663 10.5196 13.9075 10.5196 13.8406C10.5196 13.835 10.3747 13.8908 10.2019 13.9632C9.823 14.1193 9.73383 14.1248 9.5165 14.0134C9.3103 13.9075 9.16541 13.64 9.16541 13.3669C9.16541 12.988 9.94003 11.6895 10.3691 11.344C10.5697 11.1824 10.6143 11.1713 11.0379 11.1713C11.4224 11.1713 11.5506 11.1991 11.8292 11.3273C12.0075 11.4109 12.2416 11.5446 12.3475 11.6282C12.4478 11.7063 12.5536 11.7453 12.5759 11.723C12.6762 11.6059 13.4843 10.2295 13.8187 9.6109C14.231 8.83071 14.3258 8.63009 14.2868 8.59108C14.2701 8.57437 14.0639 8.69139 13.8242 8.84743C13.2948 9.19294 12.9716 9.33783 12.5258 9.41585C12.1245 9.4883 12.0632 9.45486 11.9072 9.10935C11.6787 8.6078 11.8459 8.09511 12.431 7.51554C12.6317 7.31492 12.9382 7.07529 13.1054 6.98613L13.4119 6.81895L12.9828 6.04433C12.7431 5.61523 12.4533 5.11926 12.3419 4.94093C12.1023 4.57313 12.1023 4.53412 12.2471 3.89882C12.3809 3.31369 12.3865 3.11864 12.275 3.11864C12.2249 3.11864 11.9462 3.24681 11.6453 3.40285C11.3165 3.5756 11.0713 3.67034 11.0156 3.64805C10.9598 3.63133 10.8038 3.46972 10.6645 3.29139C10.5252 3.11864 9.99018 2.61152 9.48306 2.17127C8.97037 1.72545 8.37965 1.20718 8.16232 1.01214C7.94498 0.822663 7.72764 0.666626 7.67191 0.666626C7.61619 0.666626 7.22609 0.928545 6.80256 1.25177Z"/>
<path d="M7.04777 5.69325C6.87501 5.8883 6.53507 6.30625 6.28987 6.6239C5.84405 7.20347 5.83848 7.20904 5.93322 7.34836C6.10597 7.61585 6.84715 8.52421 7.14808 8.84743L7.45458 9.16508L7.57718 9.02019C7.91154 8.63567 8.56913 7.74403 8.71402 7.48211L8.87563 7.1979L8.69173 6.95269C8.59142 6.82452 8.41866 6.57375 8.30721 6.40656C8.00628 5.94403 7.50473 5.34774 7.42671 5.34774C7.38213 5.34774 7.21495 5.50378 7.04777 5.69325Z"/>
</svg>
